<svg xmlns="http://www.w3.org/2000/svg" 
    xmlns:xlink="http://www.w3.org/1999/xlink" width="250.3300018310547" viewBox="2.700000047683716 8.460000038146973 250.3300018310547 34.76000213623047" overflow="visible" style="overflow: visible;">
    <path stroke="none" fill="#66bfff" d="M4.04 12.08L4.04 12.08L4.04 12.08Q2.70 11.65 2.70 10.84L2.70 10.84L2.70 10.84Q2.70 10.03 4.64 10.03L4.64 10.03L6.02 10.03L6.73 10.05L8.81 10.08L8.81 10.08Q13.08 10.08 13.95 10.28L13.95 10.28L13.95 10.28Q14.81 10.48 14.81 11.18L14.81 11.18L14.81 11.18Q14.81 11.65 13.41 12.34L13.41 12.34L13.41 12.34Q12 13.03 11.74 14.27L11.74 14.27L11.74 14.27Q11.20 16.80 11.20 27.47L11.20 27.47L11.20 27.47Q11.20 38.13 11.63 38.86L11.63 38.86L11.63 38.86Q12.23 39.91 16.35 39.91L16.35 39.91L16.35 39.91Q20.46 39.91 21.83 39.26L21.83 39.26L21.83 39.26Q23.20 38.60 24.53 36.53L24.53 36.53L24.53 36.53Q25.85 34.45 26.39 34.45L26.39 34.45L26.39 34.45Q27.26 34.45 27.26 35.91L27.26 35.91L27.26 35.91Q27.26 40.97 25.92 42.09L25.92 42.09L25.92 42.09Q25.13 42.77 18.12 42.77L18.12 42.77L16.03 42.77L15.33 42.75L13.95 42.75L13.95 42.75Q2.70 42.75 2.70 41.81L2.70 41.81L2.70 41.81Q2.70 41.20 3.93 40.48L3.93 40.48L3.93 40.48Q5.16 39.75 5.58 38.30L5.58 38.30L5.58 38.30Q6 36.84 6 29.06L6 29.06L6.09 19.20L6.09 19.20Q6.09 14.06 5.74 13.29L5.74 13.29L5.74 13.29Q5.39 12.52 4.04 12.08ZM40.90 21.94L40.90 21.94L40.41 21.94L40.41 21.94Q37.88 21.94 36.12 24.66L36.12 24.66L36.12 24.66Q34.73 26.79 34.73 31.05L34.73 31.05L34.73 31.34L34.76 31.64L34.76 31.64Q34.76 38.11 38.23 40.38L38.23 40.38L38.23 40.38Q39.47 41.18 41.02 41.18L41.02 41.18L41.27 41.16L41.27 41.16Q43.78 41.16 45.30 38.79L45.30 38.79L45.30 38.79Q46.83 36.42 46.83 32.65L46.83 32.65L46.83 31.20L46.83 31.20Q46.83 27.12 45.15 24.53L45.15 24.53L45.15 24.53Q43.48 21.94 40.90 21.94ZM51.82 30.82L51.82 30.82L51.82 31.99L51.82 31.99Q51.82 34.15 50.93 36.40L50.93 36.40L50.93 36.40Q49.22 40.78 45 42.42L45 42.42L45 42.42Q42.96 43.22 41.09 43.22L41.09 43.22L40.71 43.22L40.31 43.20L40.31 43.20Q35.91 43.20 32.93 40.22L32.93 40.22L32.93 40.22Q31.57 38.86 30.79 36.59L30.79 36.59L30.79 36.59Q30 34.31 30 32.32L30 32.32L30 31.17L30 31.17Q30 28.97 30.88 26.74L30.88 26.74L30.88 26.74Q31.76 24.52 33.13 23.07L33.13 23.07L33.13 23.07Q34.50 21.63 36.59 20.78L36.59 20.78L36.59 20.78Q38.67 19.92 40.62 19.92L40.62 19.92L41.77 19.92L41.77 19.92Q45.82 19.92 48.82 22.92L48.82 22.92L48.82 22.92Q50.11 24.21 50.96 26.39L50.96 26.39L50.96 26.39Q51.82 28.57 51.82 30.82ZM67.31 31.90L67.31 31.90L67.31 31.90Q64.27 31.90 62.37 33.38L62.37 33.38L62.37 33.38Q60.47 34.85 60.47 36.59L60.47 36.59L60.47 37.38L60.47 37.38Q60.52 37.66 60.52 37.85L60.52 37.85L60.52 37.85Q60.52 38.98 61.51 39.75L61.51 39.75L61.51 39.75Q62.51 40.52 63.49 40.52L63.49 40.52L64.24 40.52L64.24 40.52Q65.79 40.52 67.73 39.16L67.73 39.16L67.73 39.16Q69.14 38.18 69.14 36.68L69.14 36.68L69.14 36.68Q69.19 36.40 69.19 36.26L69.19 36.26L69.23 35.65L69.23 34.92L69.26 34.48L69.26 32.86L69.26 32.86Q69.26 31.83 68.65 31.83L68.65 31.83L68.06 31.83L68.06 31.83Q67.64 31.90 67.31 31.90ZM65.32 19.90L65.32 19.90L65.91 19.90L65.91 19.90Q70.80 19.90 72.61 22.88L72.61 22.88L72.61 22.88Q73.71 24.70 73.71 31.36L73.71 31.36L73.71 31.36Q73.71 38.02 73.90 38.65L73.90 38.65L73.90 38.65Q74.20 39.70 75.23 40.05L75.23 40.05L75.23 40.05Q76.92 40.64 76.92 40.85L76.92 40.85L76.92 41.20L76.92 41.20Q76.92 41.67 75.84 42.30L75.84 42.30L75.84 42.30Q74.77 42.94 72.66 42.94L72.66 42.94L72.66 42.94Q71.44 42.94 70.45 41.87L70.45 41.87L70.45 41.87Q69.47 40.80 69.16 40.80L69.16 40.80L69.16 40.80Q69.14 40.80 66.56 42L66.56 42L66.56 42Q63.98 43.20 62.51 43.20L62.51 43.20L61.41 43.20L61.41 43.20Q59.16 43.20 57.62 41.61L57.62 41.61L57.62 41.61Q56.09 40.03 56.09 38.18L56.09 38.18L56.09 37.59L56.09 37.59Q56.09 34.64 58.31 32.86L58.31 32.86L58.31 32.86Q59.84 31.64 62.70 30.84L62.70 30.84L62.70 30.84Q63.02 30.75 65.27 30.27L65.27 30.27L65.27 30.27Q67.52 29.79 68.02 29.55L68.02 29.55L68.02 29.55Q69.30 28.92 69.30 26.80L69.30 26.80L69.30 26.80Q69.30 24.68 68.16 23.45L68.16 23.45L68.16 23.45Q67.01 22.22 65.02 22.22L65.02 22.22L65.02 22.22Q63.02 22.22 61.55 24.40L61.55 24.40L61.55 24.40Q60.07 26.58 58.48 26.58L58.48 26.58L58.48 26.58Q58.13 26.58 57.59 26.06L57.59 26.06L57.59 26.06Q57.05 25.55 57.05 24.45L57.05 24.45L57.05 24.45Q57.05 22.73 58.88 21.66L58.88 21.66L58.88 21.66Q61.85 19.90 65.32 19.90ZM90.38 41.70L90.38 41.70L90.38 41.70Q90.38 42.56 87.35 42.56L87.35 42.56L85.20 42.49L85.20 42.49Q84.49 42.47 83.09 42.47L83.09 42.47L83.09 42.47Q80.91 42.47 80.91 41.34L80.91 41.34L80.91 41.34Q80.91 40.97 82.09 40.41L82.09 40.41L82.09 40.41Q83.27 39.84 83.57 39.15L83.57 39.15L83.57 39.15Q83.86 38.46 83.86 35.41L83.86 35.41L83.86 31.29L83.81 29.84L83.81 27.19L83.81 27.19Q83.81 25.27 83.54 24.41L83.54 24.41L83.54 24.41Q83.27 23.55 82.24 23.00L82.24 23.00L82.24 23.00Q81.21 22.45 81.21 22.22L81.21 22.22L81.21 22.22Q81.21 21.52 81.96 21.16L81.96 21.16L81.96 21.16Q83.46 20.48 86.06 20.48L86.06 20.48L86.06 20.48Q87.40 20.48 87.89 21.52L87.89 21.52L87.89 21.52Q88.69 23.13 88.78 23.13L88.78 23.13L88.78 23.13Q88.85 23.13 89.79 22.48L89.79 22.48L89.79 22.48Q93.05 20.13 95.67 20.11L95.67 20.11L96.40 20.11L96.40 20.11Q100.57 20.13 102.26 23.74L102.26 23.74L102.26 23.74Q103.10 25.57 103.10 34.50L103.10 34.50L103.10 34.50Q103.10 38.86 103.42 39.47L103.42 39.47L103.42 39.47Q103.73 40.08 104.94 40.64L104.94 40.64L104.94 40.64Q106.15 41.20 106.15 41.63L106.15 41.63L106.15 41.63Q106.15 42.61 99.73 42.61L99.73 42.61L99.02 42.61L99.02 42.61Q96.96 42.61 96.96 41.98L96.96 41.98L96.96 41.98Q96.96 41.34 97.69 40.66L97.69 40.66L97.69 40.66Q98.41 39.98 98.57 39.59L98.57 39.59L98.57 39.59Q98.72 39.19 98.72 37.66L98.72 37.66L98.72 37.66Q98.72 36.14 98.70 35.41L98.70 35.41L98.65 33.96L98.65 30.94L98.65 30.94Q98.65 26.11 97.68 24.46L97.68 24.46L97.68 24.46Q96.70 22.80 94.17 22.80L94.17 22.80L94.17 22.80Q92.91 22.80 91.50 23.54L91.50 23.54L91.50 23.54Q90.09 24.28 89.23 25.50L89.23 25.50L89.23 25.50Q88.36 26.72 88.36 31.69L88.36 31.69L88.22 36.09L88.22 36.09Q88.22 38.34 88.55 39.20L88.55 39.20L88.55 39.20Q88.88 40.05 89.63 40.73L89.63 40.73L89.63 40.73Q90.38 41.41 90.38 41.70ZM127.73 28.88L127.73 28.88L127.73 28.59L127.73 28.59Q127.73 27.05 123.75 17.09L123.75 17.09L123.75 17.09Q123.19 15.68 123.08 15.68L123.08 15.68L123.08 15.68Q122.98 15.68 120.62 21.96L120.62 21.96L120.62 21.96Q118.27 28.24 118.27 28.78L118.27 28.78L118.27 28.78Q118.27 29.20 120.52 29.20L120.52 29.20L124.55 29.20L124.55 29.20Q127.73 29.20 127.73 28.88ZM108.07 41.48L108.07 41.48L108.07 41.48Q108.07 41.02 109.49 40.13L109.49 40.13L109.49 40.13Q110.91 39.23 111.68 37.50L111.68 37.50L111.68 37.50Q111.70 37.43 113.27 33.36L113.27 33.36L113.27 33.36Q114.84 29.30 116.73 24.83L116.73 24.83L116.73 24.83Q118.62 20.37 119.20 18.64L119.20 18.64L119.20 18.64Q119.79 16.92 120.52 14.58L120.52 14.58L120.52 14.58Q121.24 12.23 121.55 11.72L121.55 11.72L121.55 11.72Q122.48 10.13 124.08 10.13L124.08 10.13L124.08 10.13Q124.62 10.13 125.20 10.55L125.20 10.55L125.20 10.55Q126.96 11.84 129.28 18.63L129.28 18.63L129.28 18.63Q130.20 21.30 133.15 29.25L133.15 29.25L133.15 29.25Q136.10 37.20 136.66 38.37L136.66 38.37L136.66 38.37Q137.23 39.54 138.16 40.08L138.16 40.08L138.16 40.08Q140.09 41.18 140.09 41.70L140.09 41.70L140.09 41.70Q140.09 42.61 136.48 42.61L136.48 42.61L133.71 42.61L133.71 42.61Q129.61 42.61 129.61 41.77L129.61 41.77L129.61 41.77Q129.61 41.20 130.38 40.37L130.38 40.37L130.38 40.37Q131.16 39.54 131.16 38.66L131.16 38.66L131.16 38.66Q131.16 37.78 130.23 35.45L130.23 35.45L130.23 35.45Q129.30 33.12 128.86 32.51L128.86 32.51L128.86 32.51Q128.04 31.38 125.41 31.38L125.41 31.38L124.05 31.34L124.05 31.34Q123.35 31.31 121.97 31.31L121.97 31.31L121.97 31.31Q118.20 31.31 117.47 31.93L117.47 31.93L117.47 31.93Q116.74 32.55 115.73 35.14L115.73 35.14L115.73 35.14Q114.73 37.73 114.73 38.67L114.73 38.67L114.73 38.67Q114.73 39.61 115.70 40.52L115.70 40.52L115.70 40.52Q116.67 41.44 116.67 41.60L116.67 41.60L116.67 41.60Q116.67 42.42 114.38 42.42L114.38 42.42L114.38 42.42Q108.07 42.42 108.07 41.48ZM153.23 40.66L153.23 40.66L153.96 40.66L153.96 40.66Q155.04 40.66 156.32 40.00L156.32 40.00L156.32 40.00Q157.59 39.33 158.30 38.30L158.30 38.30L158.30 38.30Q159 37.27 159 32.67L159 32.67L159 27.80L159 27.80Q159 24.91 158.23 24.02L158.23 24.02L158.23 24.02Q156.73 22.29 154.17 22.29L154.17 22.29L153.68 22.29L153.68 22.29Q151.20 22.29 149.41 24.48L149.41 24.48L149.41 24.48Q147.63 26.67 147.63 30.30L147.63 30.30L147.59 30.87L147.59 32.30L147.59 32.30Q147.59 35.84 149.16 38.25L149.16 38.25L149.16 38.25Q150.73 40.66 153.23 40.66ZM159.14 19.90L159.14 19.90Q159.26 19.52 159.26 16.25L159.26 16.25L159.26 16.25Q159.26 12.98 158.86 12.23L158.86 12.23L158.86 12.23Q158.46 11.48 157.39 11.00L157.39 11.00L157.39 11.00Q156.33 10.52 156.33 9.94L156.33 9.94L156.33 9.94Q156.33 9.61 156.63 9.38L156.63 9.38L156.63 9.38Q157.83 8.46 161.11 8.46L161.11 8.46L161.65 8.46L161.65 8.46Q163.27 8.46 163.55 10.20L163.55 10.20L163.55 10.20Q163.57 10.34 163.57 23.86L163.57 23.86L163.57 23.86Q163.57 37.38 163.76 38.41L163.76 38.41L163.76 38.41Q163.95 39.45 164.74 40.01L164.74 40.01L164.74 40.01Q166.38 41.16 166.38 41.25L166.38 41.25L166.38 41.25Q166.38 41.84 165.87 42.14L165.87 42.14L165.87 42.14Q164.60 42.89 162.79 42.89L162.79 42.89L162.79 42.89Q160.97 42.89 160.52 42.52L160.52 42.52L160.52 42.52Q160.08 42.14 159.63 41.48L159.63 41.48L159.63 41.48Q159.19 40.83 159.09 40.83L159.09 40.83L159.09 40.83Q158.79 40.83 157.75 41.45L157.75 41.45L157.75 41.45Q156.70 42.07 155.41 42.61L155.41 42.61L155.41 42.61Q154.13 43.15 152.16 43.15L152.16 43.15L151.57 43.15L151.57 43.15Q150.07 43.15 148.38 42.33L148.38 42.33L148.38 42.33Q145.27 40.80 144.05 37.24L144.05 37.24L144.05 37.24Q143.27 34.95 143.27 32.37L143.27 32.37L143.27 32.37Q143.27 26.91 146.27 23.63L146.27 23.63L146.27 23.63Q149.27 20.34 154.52 20.34L154.52 20.34L155.09 20.39L156.16 20.53L156.16 20.53Q157.43 20.67 157.64 20.67L157.64 20.67L157.64 20.67Q158.91 20.67 159.14 19.90L159.14 19.90ZM187.80 38.66L187.80 38.66L187.80 38.66Q187.95 37.80 187.95 32.31L187.95 32.31L187.95 32.31Q187.95 26.81 187.34 25.24L187.34 25.24L187.34 25.24Q186.54 23.16 184.44 23.16L184.44 23.16L184.44 23.16Q182.34 23.16 180.76 24.36L180.76 24.36L180.76 24.36Q179.18 25.57 178.68 27.11L178.68 27.11L178.68 27.11Q178.17 28.64 178.17 37.85L178.17 37.85L178.17 37.85Q178.17 39.30 178.97 40.43L178.97 40.43L178.97 40.43Q179.77 41.55 179.77 41.88L179.77 41.88L179.77 41.88Q179.77 42.56 176.59 42.56L176.59 42.56L176.59 42.56Q173.41 42.56 172.08 42.02L172.08 42.02L172.08 42.02Q171.47 41.77 171.47 41.16L171.47 41.16L171.47 41.16Q171.47 41.02 172.29 40.15L172.29 40.15L172.29 40.15Q173.11 39.28 173.44 38.50L173.44 38.50L173.44 38.50Q173.77 37.71 173.77 34.52L173.77 34.52L173.74 33.42L173.65 31.22L173.65 31.22Q173.60 29.79 173.60 27.30L173.60 27.30L173.60 27.30Q173.60 24.82 173.34 24.27L173.34 24.27L173.34 24.27Q173.09 23.72 172.35 22.98L172.35 22.98L172.35 22.98Q171.61 22.24 171.61 21.84L171.61 21.84L171.94 21.35L171.94 21.35Q172.90 20.55 175.27 20.55L175.27 20.55L175.27 20.55Q176.65 20.55 177.56 21.60L177.56 21.60L177.56 21.60Q178.48 22.64 178.88 22.64L178.88 22.64L179.58 22.29L181.34 21.21L181.34 21.21Q183.56 19.97 185.54 19.97L185.54 19.97L185.54 19.97Q187.52 19.97 188.57 20.44L188.57 20.44L188.57 20.44Q189.61 20.91 190.83 21.95L190.83 21.95L190.83 21.95Q192.05 22.99 192.59 22.99L192.59 22.99L193.36 22.57L194.23 22.01L194.23 22.01Q195.89 20.95 197.14 20.53L197.14 20.53L197.14 20.53Q198.40 20.11 200.14 20.11L200.14 20.11L200.14 20.11Q201.89 20.11 203.26 20.95L203.26 20.95L203.26 20.95Q204.63 21.80 205.36 23.23L205.36 23.23L205.36 23.23Q206.48 25.48 206.48 34.24L206.48 34.24L206.48 34.24Q206.48 37.97 206.71 38.74L206.71 38.74L206.71 38.74Q206.93 39.52 207.98 40.39L207.98 40.39L207.98 40.39Q209.04 41.27 209.04 41.67L209.04 41.67L209.04 41.67Q209.04 42.61 202.92 42.61L202.92 42.61L202.92 42.61Q200.81 42.61 200.81 42.02L200.81 42.02L200.81 42.02Q200.81 41.77 201.42 40.58L201.42 40.58L201.42 40.58Q202.03 39.40 202.03 37.80L202.03 37.80L202.03 37.80Q202.03 27.66 201.33 25.86L201.33 25.86L201.33 25.86Q200.63 24.07 199.41 23.48L199.41 23.48L199.41 23.48Q198.66 23.13 197.34 23.13L197.34 23.13L197.34 23.13Q196.03 23.13 194.66 24.08L194.66 24.08L194.66 24.08Q193.29 25.03 192.89 26.37L192.89 26.37L192.89 26.37Q192.49 27.70 192.49 33.34L192.49 33.34L192.49 33.34Q192.49 38.98 192.87 39.63L192.87 39.63L192.87 39.63Q192.98 39.84 193.99 40.52L193.99 40.52L193.99 40.52Q195 41.20 195 41.86L195 41.86L195 41.86Q195 42.75 188.09 42.75L188.09 42.75L188.09 42.75Q185.48 42.75 185.48 42.07L185.48 42.07L185.48 42.07Q185.48 41.39 186.19 40.78L186.19 40.78L186.19 40.78Q187.66 39.52 187.80 38.66ZM215.20 12.82L215.20 12.82L215.20 12.16L215.20 12.16Q215.25 11.98 215.25 11.61L215.25 11.61L215.25 11.61Q215.25 11.25 216.02 10.48L216.02 10.48L216.02 10.48Q216.80 9.70 217.59 9.70L217.59 9.70L218.06 9.63L218.44 9.63L218.44 9.63Q219.40 9.63 220.23 10.32L220.23 10.32L220.23 10.32Q221.06 11.02 221.06 11.86L221.06 11.86L221.13 12.42L221.13 12.63L221.04 13.17L221.04 13.17Q221.04 13.88 220.18 14.58L220.18 14.58L220.18 14.58Q219.33 15.28 218.63 15.28L218.63 15.28L218.06 15.35L217.97 15.35L217.88 15.33L217.69 15.33L217.69 15.33Q217.50 15.28 217.41 15.28L217.41 15.28L217.41 15.28Q216.73 15.28 215.96 14.52L215.96 14.52L215.96 14.52Q215.20 13.76 215.20 12.82ZM216.09 42.89L214.69 42.89L214.69 42.89Q213.14 42.89 213.14 41.95L213.14 41.95L213.14 41.95Q213.14 41.34 214.36 40.79L214.36 40.79L214.36 40.79Q215.58 40.24 215.87 39.20L215.87 39.20L215.87 39.20Q216.16 38.16 216.16 31.90L216.16 31.90L216.19 31.17L216.19 30.45L216.21 29.72L216.21 28.27L216.14 26.11L216.14 26.11Q216.14 24.23 215.73 23.74L215.73 23.74L215.73 23.74Q215.32 23.25 214.13 22.92L214.13 22.92L214.13 22.92Q212.93 22.59 212.93 21.98L212.93 21.98L212.93 21.98Q212.93 21.49 213.45 21.19L213.45 21.19L213.45 21.19Q215.09 20.20 218.81 20.20L218.81 20.20L218.81 20.20Q220.17 20.20 220.41 21.16L220.41 21.16L220.41 21.16Q220.52 21.66 220.52 30.09L220.52 30.09L220.52 30.09Q220.52 38.53 220.78 39.43L220.78 39.43L220.78 39.43Q221.04 40.34 222.36 40.86L222.36 40.86L222.36 40.86Q223.69 41.39 223.69 41.81L223.69 41.81L223.69 42.07L223.69 42.07Q223.69 42.75 221.65 42.75L221.65 42.75L221.65 42.75Q220.95 42.80 220.62 42.80L220.62 42.80L219.56 42.82L218.53 42.82L216.09 42.89ZM237.26 41.70L237.26 41.70L237.26 41.70Q237.26 42.56 234.23 42.56L234.23 42.56L232.08 42.49L232.08 42.49Q231.38 42.47 229.97 42.47L229.97 42.47L229.97 42.47Q227.79 42.47 227.79 41.34L227.79 41.34L227.79 41.34Q227.79 40.97 228.97 40.41L228.97 40.41L228.97 40.41Q230.16 39.84 230.45 39.15L230.45 39.15L230.45 39.15Q230.74 38.46 230.74 35.41L230.74 35.41L230.74 31.29L230.70 29.84L230.70 27.19L230.70 27.19Q230.70 25.27 230.43 24.41L230.43 24.41L230.43 24.41Q230.16 23.55 229.13 23.00L229.13 23.00L229.13 23.00Q228.09 22.45 228.09 22.22L228.09 22.22L228.09 22.22Q228.09 21.52 228.84 21.16L228.84 21.16L228.84 21.16Q230.34 20.48 232.95 20.48L232.95 20.48L232.95 20.48Q234.28 20.48 234.77 21.52L234.77 21.52L234.77 21.52Q235.57 23.13 235.66 23.13L235.66 23.13L235.66 23.13Q235.73 23.13 236.67 22.48L236.67 22.48L236.67 22.48Q239.93 20.13 242.55 20.11L242.55 20.11L243.28 20.11L243.28 20.11Q247.45 20.13 249.14 23.74L249.14 23.74L249.14 23.74Q249.98 25.57 249.98 34.50L249.98 34.50L249.98 34.50Q249.98 38.86 250.30 39.47L250.30 39.47L250.30 39.47Q250.62 40.08 251.82 40.64L251.82 40.64L251.82 40.64Q253.03 41.20 253.03 41.63L253.03 41.63L253.03 41.63Q253.03 42.61 246.61 42.61L246.61 42.61L245.91 42.61L245.91 42.61Q243.84 42.61 243.84 41.98L243.84 41.98L243.84 41.98Q243.84 41.34 244.57 40.66L244.57 40.66L244.57 40.66Q245.30 39.98 245.45 39.59L245.45 39.59L245.45 39.59Q245.60 39.19 245.60 37.66L245.60 37.66L245.60 37.66Q245.60 36.14 245.58 35.41L245.58 35.41L245.53 33.96L245.53 30.94L245.53 30.94Q245.53 26.11 244.56 24.46L244.56 24.46L244.56 24.46Q243.59 22.80 241.05 22.80L241.05 22.80L241.05 22.80Q239.79 22.80 238.38 23.54L238.38 23.54L238.38 23.54Q236.98 24.28 236.11 25.50L236.11 25.50L236.11 25.50Q235.24 26.72 235.24 31.69L235.24 31.69L235.10 36.09L235.10 36.09Q235.10 38.34 235.43 39.20L235.43 39.20L235.43 39.20Q235.76 40.05 236.51 40.73L236.51 40.73L236.51 40.73Q237.26 41.41 237.26 41.70Z" transform="rotate(0 127.86500096321106 25.840001106262207)"></path>
</svg>