<svg width="421" height="406" viewBox="0 0 421 406" fill="none" xmlns="http://www.w3.org/2000/svg">
<path d="M0.346497 0H94.0953V127.638L0.346497 53.0414V0Z" fill="#00C0EF"/>
<path d="M0.346497 72.318V405.611H94.0953V146.915L0.346497 72.318Z" fill="#00C0EF"/>
<path d="M125.345 171.78V405.611H219.094V171.638L164.335 202.805L125.345 171.78Z" fill="#DD4B39"/>
<path d="M250.343 153.851V405.611H420.653V312.5H344.092V100.491L250.343 153.851Z" fill="#00A65A"/>
<path d="M344.092 81.2149L250.343 134.575V51.4814H344.092V81.2149Z" fill="#00A65A"/>
<path d="M219.094 152.361L164.335 183.529L125.345 152.504V96.7226H219.094V152.361Z" fill="#DD4B39"/>
<path d="M367.226 76.6565L352.624 109.186L348.806 87.7698L331.592 74.436L367.226 76.6565Z" fill="#F39C12"/>
</svg>
